<?xml version="1.0" encoding="utf-8"?>
<!-- Generator: Adobe Illustrator 26.1.0, SVG Export Plug-In . SVG Version: 6.00 Build 0)  -->
<svg version="1.1" id="Layer_1" xmlns="http://www.w3.org/2000/svg" xmlns:xlink="http://www.w3.org/1999/xlink" x="0px"
     y="0px"
     viewBox="0 0 2880 2880" style="enable-background:new 0 0 2880 2880;" xml:space="preserve">
<style type="text/css">
	.st0{stroke:#000000;stroke-miterlimit:10;}
</style>
    <g>
	<path class="st0" d="M669,708.8c4.5-39.5-14.1-75.7-44-92.1c4.1-49.2-27.4-92.5-71.6-97.6c-31-3.5-60.2,12.7-77.3,39.6
		c-12.9-18.1-32.1-30.5-54.5-33.1c-45.1-5.2-86.4,31.6-92.2,82c-2.7,23.6,2.8,46,14.1,63.7c-19,14.8-32.6,38.1-35.8,65.5
		c-5.8,50.5,26.1,95.6,71.3,100.7c16.1,1.8,31.6-1.7,45.3-9.2c9.3,33.1,35.2,58.3,68.3,62.1c45.1,5.2,86.4-31.6,92.2-82
		c0.7-5.8,0.8-11.6,0.5-17.2C627,791.4,663.6,756.2,669,708.8z M457.1,692c8.1-6.3,15.2-14.1,20.9-23.1
		c7.3,10.2,16.5,18.6,27.2,24.4c-0.4,4.7-0.5,9.4-0.2,14c-13,0-25.6,3.5-36.8,9.6C465.7,708,462,699.6,457.1,692z"/>
        <path class="st0" d="M887.2,873.5c21.6-44.1,8.2-96.7-30.8-118.7c-27.4-15.4-60.2-11.7-85.7,6.6c-5.4-21.9-18.6-40.9-38.4-52.1
		c-39.8-22.5-91.2-4.4-114.8,40.3c-11,20.9-14,43.9-10,64.7c-22.9,6.3-43.9,22.7-56.7,47c-23.6,44.7-10.4,99.1,29.4,121.6
		c14.2,8,29.8,10.8,45.1,9.2c-3.4,34.4,11.4,68,40.6,84.4c39.8,22.5,91.2,4.4,114.8-40.3c2.7-5.2,4.9-10.4,6.7-15.8
		c38.5,16.3,85-2.1,107.1-44C913,941.4,908.9,900.4,887.2,873.5z M706.2,905.4c0.9-9.4,0.5-18.7-1.2-27.6
		c9.7-2.7,19.1-7.2,27.6-13.3c3,12.3,8.5,23.7,16.3,33.4c-2.1,4.2-3.8,8.6-5.3,12.9C731.6,905.7,718.8,904,706.2,905.4z"/>
        <path class="st0" d="M712.4,611.6c-12.8,20.7-44.1,30.1-67.4,22.6c-36.5-11.7-47.3-62.5-52.5-87c-3.3-15.7,0.1-10.6-5.8-61.7
		c-3.6-31.7-5.9-42.3-0.3-46.4c9-6.6,30.3,9,51.8,24.7c10.1,7.4,20.8,15.2,31.3,26.3C690.9,512.8,735.4,574.3,712.4,611.6z"/>
        <path class="st0" d="M905.8,730.3c-1.4,12.5-25.2,19.2-36.3,22.3c-30.6,8.6-57,4.3-71,1.4c-35.1-7.3-101.4-28.5-99.3-47.3
		c2.2-19.6,50.3-30.2,107.4-23.6c20.9,2.4,42.6,3.7,64.8,15.6C883.1,705,907.2,718,905.8,730.3z"/>
        <path class="st0" d="M854.1,1034.9c-8.2-40.3,24.4-93.9,66.4-97.8c48.1-4.4,83.9,58.8,80.8,97.9c-0.4,4.5-0.7,1.7-9.1,39.6
		c-8.3,37.3-9.4,46.2-16.4,49.2c-7.6,3.3-13.3-4.2-40.9-17.5c-20.6-9.9-22.6-8.3-32.9-13.8C898.3,1090.7,861.2,1070,854.1,1034.9z"
        />
        <g>
		<path class="st0" d="M428.6,451.5c0-26.6-18.4-30.7-38.3-84.8c-16.7-45.4-14.1-71.1-24.9-72.5c-16.2-2.2-35.8,47.8-46.3,74.7
			c-10.2,26.2-15.7,42-18.2,63.9c-0.2,1.3-0.3,2.7-0.4,4.1l-12-13.9c3.5-18.1,2-40.9-5.5-64.3c-6.8-21.4-17.7-35.2-37.9-59.4
			c-18.2-21.8-40-47.9-51.8-42.5c-8.8,4.1-8,27-6.1,72.8c1.3,32.5,2.2,48.6,6.1,60.7c14.6,45.9,46.4,76,71.2,67.5l45.8,53.1
			c6,14.9,14.7,26.6,26.8,30.5C371.7,552.8,428.6,498.3,428.6,451.5z"/>
            <path class="st0" d="M271.3,553.3c-29.8-5.6-50-0.1-57.2,2.2c-0.4,0.1-0.5,0.2-1.3,0.4c-53.3,17.3-85.9,18.3-87.6,28.5
			c-1.8,10.7,33.9,12.6,58.3,48.3c10,14.7,9.7,22.7,21.4,32.6c16.9,14.5,37.9,15,48.9,15.2c47.3,0.6,114.1-28,114.4-62.1
			C368.5,582.3,294.4,557.6,271.3,553.3z"/>
	</g>
        <path class="st0" d="M1199.3,878.4c-13.8-5.8-45.4-19.2-81.4-4.9c-12.7,5.1-38.5,18.6-48.3,36.9l-18.7-2.1
		c25.4-24.1,38.4-54.4,39.7-57.4c18.3-44.2,15.1-98.2,0.3-103.4c-9.8-3.4-15.7,17.7-45.2,33.1c-26.1,13.6-35.8,4.7-80.1,16.4
		c-31.9,8.4-51.6,13.6-63.5,32.3c-12,18.8-11.3,44-4,62c14.8,36.2,58.2,48.1,87,46.9c5.2-0.2,10.2-0.9,15-1.9l-0.5,4.1l77.6,8.9
		c16.3,16.1,46.6,26,70.8,21.9c5.8-1,26.7-4.5,34.5-20c5.2-10.3-0.5-16.1,4.6-26.6c9.1-18.8,35.5-17.3,36.4-27
		C1224.5,889.1,1205.1,880.9,1199.3,878.4z"/>
</g>
</svg>
