<?xml version="1.0" encoding="utf-8"?>
<!-- Generator: Adobe Illustrator 26.1.0, SVG Export Plug-In . SVG Version: 6.00 Build 0)  -->
<svg version="1.1" id="Layer_1" xmlns="http://www.w3.org/2000/svg" xmlns:xlink="http://www.w3.org/1999/xlink" x="0px" y="0px"
	 viewBox="0 0 2808 1944" style="enable-background:new 0 0 2808 1944;" xml:space="preserve">
<style type="text/css">
	.st0{fill:none;stroke:#000000;stroke-width:0.7937;}
	.st1{fill:#231F20;stroke:#000000;stroke-miterlimit:10;}
</style>
<g id="layer1" transform="translate(0,232.16668)">
	<path id="path812-7" class="st0" d="M1355.5,443.6c0,357.9-290.1,648-648,648s-648-290.1-648-648c0-357.9,290.1-648,648-648l0,0
		C1065.4-204.4,1355.5,85.7,1355.5,443.6C1355.5,443.6,1355.5,443.6,1355.5,443.6z"/>
	<g id="g898" transform="translate(-819.46188,28.344058)">
		<path id="path815-9" class="st0" d="M1065.1-39.2h923.8"/>
		<path id="path815-4-0" class="st0" d="M920.2,188h1213.7"/>
		<path id="path815-0-6" class="st0" d="M879,415.3h1296"/>
		<path id="path815-47-5" class="st0" d="M920.2,642.5h1213.7"/>
		<path id="path815-07-2" class="st0" d="M1065.1,869.8h923.8"/>
	</g>
</g>
<g>
	<path class="st1" d="M517.9,999.7c1.6-30.6-14.5-57.6-38.3-68.8c0.8-38.1-25.6-69.9-59.8-71.7c-24.1-1.2-45.8,12.7-57.6,34.2
		c-10.8-13.3-26.2-22-43.6-22.9c-35-1.8-65,28.5-67,67.6c-0.9,18.3,4.4,35.3,13.9,48.4c-13.9,12.3-23.3,30.9-24.4,52.2
		c-2,39.2,24.7,72.4,59.8,74.2c12.5,0.6,24.3-2.8,34.4-9.2c8.7,25,29.9,43.2,55.6,44.5c35,1.8,65-28.5,67-67.6
		c0.2-4.5,0.1-8.9-0.4-13.3C489.5,1065.3,516,1036.4,517.9,999.7z M353.9,996.9c5.9-5.2,11-11.6,15-18.8
		c6.1,7.5,13.6,13.5,22.1,17.5c-0.1,3.7,0.1,7.3,0.5,10.8c-10.1,0.6-19.5,3.9-27.9,9.2C361.2,1008.8,358,1002.5,353.9,996.9z"/>
	<path class="st1" d="M697.2,1115.8c14.5-35,1.6-74.9-29.5-89.9c-21.8-10.6-46.9-6.1-65.7,9.2c-5.2-16.6-16.3-30.6-32.1-38.3
		c-31.7-15.4-70.5,1-86.5,36.5c-7.5,16.6-8.7,34.5-4.6,50.3c-17.3,6-32.7,19.6-41.4,38.9c-16,35.6-3.2,76.8,28.5,92.2
		c11.3,5.5,23.5,6.9,35.2,4.9c-1,26.6,12.1,51.8,35.3,63.1c31.7,15.4,70.5-1,86.5-36.5c1.8-4.1,3.3-8.3,4.4-12.5
		c30.5,10.7,65.4-5.7,80.4-39.1C720.3,1166.8,715.2,1135.4,697.2,1115.8z M559.3,1149.1c0.3-7.3-0.5-14.4-2.2-21.2
		c7.3-2.5,14.4-6.4,20.6-11.6c2.9,9.3,7.7,17.9,14.2,24.9c-1.4,3.4-2.5,6.8-3.4,10.2C578.9,1148.1,569,1147.4,559.3,1149.1z"/>
	<path class="st1" d="M546.6,922.7c-8.9,16.6-32.5,25.3-50.8,20.7c-28.7-7.2-39.5-45.8-44.7-64.5c-3.3-11.9-0.5-8.2-7.4-47.2
		c-4.3-24.3-6.6-32.3-2.4-35.7c6.6-5.5,23.8,5.5,41.1,16.5c8.1,5.2,16.8,10.7,25.4,18.8C525.3,847.7,562.5,892.9,546.6,922.7z"/>
	<path class="st1" d="M710.5,1242.6c-22.8-22.1-25.4-70.4-0.3-91.2c28.7-23.8,79,0.9,94.1,27.2c1.7,3,0.3,1.4,11.4,29.2
		c10.9,27.4,14.1,33.5,11,38.5c-3.4,5.4-10.3,3.1-33.7,6.7c-17.4,2.7-18,4.6-27,5.5C763,1258.9,730.3,1261.9,710.5,1242.6z"/>
	<g>
		<path class="st1" d="M320.3,813.1c-1.3-20.5-15.7-22.7-33.6-63.4c-15.1-34.2-14.3-54.1-22.7-54.7c-12.6-0.9-25.2,38.6-32.1,59.8
			c-6.6,20.6-10.1,33.1-11,50.1c-0.1,1-0.1,2.1-0.1,3.2l-9.9-10.1c1.8-14.1-0.5-31.6-7.3-49.2c-6.3-16.2-15.4-26.3-32.1-43.9
			c-15.1-15.9-33.1-35-41.9-30.2c-6.6,3.5-4.9,21.2-1.2,56.3c2.6,25,4.1,37.4,7.6,46.5c13.5,34.6,39.4,56.3,58.1,48.6l37.9,38.7
			c5.3,11.2,12.6,19.8,22.1,22.2C281.4,893.8,322.6,849.1,320.3,813.1z"/>
		<path class="st1" d="M204,899.1c-23.2-2.9-38.5,2.4-44,4.5c-0.3,0.1-0.4,0.2-1,0.4c-40.2,15.9-65.3,18.2-66.1,26.1
			c-0.9,8.3,26.7,8,47.3,34.4c8.4,10.8,8.6,17,18,24.1c13.7,10.3,29.9,9.7,38.4,9.3c36.5-1.8,86.5-27,85.1-53.4
			C280.3,916.7,222,901.3,204,899.1z"/>
	</g>
	<path class="st1" d="M934.5,1104.7c-10.9-3.8-35.9-12.6-62.9,0.2c-9.5,4.5-28.7,16.2-35.4,30.7l-14.5-0.7
		c18.4-19.8,27-43.7,27.8-46.1c12-35,6.9-76.4-4.7-79.6c-7.7-2.1-11.3,14.4-33.2,27.7c-19.4,11.8-27.4,5.4-60.9,16.5
		c-24.2,8-39.1,13-47.4,27.9c-8.4,15.1-6.6,34.4-0.1,47.9c13.1,27.2,47.1,34.2,69.3,31.9c4-0.4,7.8-1.2,11.5-2.2l-0.2,3.2l60.2,3.1
		c13.3,11.7,37.1,17.8,55.6,13.4c4.4-1,20.4-4.8,25.6-17.1c3.5-8.2-1.2-12.4,2.2-20.7c6.1-14.9,26.5-15,26.8-22.6
		C954.4,1111.7,939,1106.3,934.5,1104.7z"/>
</g>
</svg>
