<?xml version="1.0" encoding="UTF-8" standalone="no" ?>
<svg xmlns="http://www.w3.org/2000/svg" xmlns:xlink="http://www.w3.org/1999/xlink" version="1.1" width="500" height="500" viewBox="0 0 500 500" xml:space="preserve">
<desc>Created with Fabric.js 4.6.0</desc>
<defs>
</defs>
<g transform="matrix(1.28 0 0 1.25 247.01 245.87)" id="7ubaEQWRHyp4z6GvPorIm"  >
<path style="stroke: rgb(0,0,0); stroke-width: 1; stroke-dasharray: none; stroke-linecap: butt; stroke-dashoffset: 0; stroke-linejoin: miter; stroke-miterlimit: 4; fill: rgb(255,255,255); fill-opacity: 0; fill-rule: nonzero; opacity: 1;" vector-effect="non-scaling-stroke"  transform=" translate(0, 0)" d="M -177.85714 -89.64286 L 177.85715000000002 -89.64286 L 177.85715000000002 89.64285 L -177.85714 89.64285 z" stroke-linecap="round" />
</g>
<g transform="matrix(0.37 0 0 0.11 84.33 144.05)" id="0dYlstRf8h4mvIz7k4zYW" class="color1 medium">
<path style="fill: #fff; stroke: rgb(0,0,0); stroke-width: 1; stroke-dasharray: none; stroke-linecap: butt; stroke-dashoffset: 0; stroke-linejoin: miter; stroke-miterlimit: 4; fill-rule: nonzero; opacity: 1;" vector-effect="non-scaling-stroke"  transform=" translate(0, 0)" d="M -177.85714 -89.64286 L 177.85715000000002 -89.64286 L 177.85715000000002 89.64285 L -177.85714 89.64285 z" stroke-linecap="round" />
</g>
<g transform="matrix(0.39 0 0 0.11 220.73 144.29)" id="7OddI8EOXBFP1-q9Hn0b5" class="color2 gray">
<path style="fill: #fff; stroke: rgb(0,0,0); stroke-width: 1; stroke-dasharray: none; stroke-linecap: butt; stroke-dashoffset: 0; stroke-linejoin: miter; stroke-miterlimit: 4; fill-rule: nonzero; opacity: 1;" vector-effect="non-scaling-stroke"  transform=" translate(0, 0)" d="M -177.85714 -89.64286 L 177.85715000000002 -89.64286 L 177.85715000000002 89.64285 L -177.85714 89.64285 z" stroke-linecap="round" />
</g>
<g transform="matrix(0.24 0 0 0.11 334.43 144.05)" id="PjYZtQ8Sgru3nDSn9fW52" class="color3 dark">
<path style="fill: #fff; stroke: rgb(0,0,0); stroke-width: 1; stroke-dasharray: none; stroke-linecap: butt; stroke-dashoffset: 0; stroke-linejoin: miter; stroke-miterlimit: 4; fill-rule: nonzero; opacity: 1;" vector-effect="non-scaling-stroke"  transform=" translate(0, 0)" d="M -177.85714 -89.64286 L 177.85715000000002 -89.64286 L 177.85715000000002 89.64285 L -177.85714 89.64285 z" stroke-linecap="round" />
</g>
<g transform="matrix(0.27 0 0 0.11 426.82 144.29)" id="YtgMTH9wMKPz0paD7XS9n" class="color1 medium">
<path style="fill: #fff; stroke: rgb(0,0,0); stroke-width: 1; stroke-dasharray: none; stroke-linecap: butt; stroke-dashoffset: 0; stroke-linejoin: miter; stroke-miterlimit: 4; fill-rule: nonzero; opacity: 1;" vector-effect="non-scaling-stroke"  transform=" translate(0, 0)" d="M -177.85714 -89.64286 L 177.85715000000002 -89.64286 L 177.85715000000002 89.64285 L -177.85714 89.64285 z" stroke-linecap="round" />
</g>
<g transform="matrix(0.35 0 0 0.12 412.27 166.21)" id="wuv1HYK1yzJAIloahPlK9" class="color2 gray">
<path style="fill: #fff; stroke: rgb(0,0,0); stroke-width: 1; stroke-dasharray: none; stroke-linecap: butt; stroke-dashoffset: 0; stroke-linejoin: miter; stroke-miterlimit: 4; fill-rule: nonzero; opacity: 1;" vector-effect="non-scaling-stroke"  transform=" translate(0, 0)" d="M -177.85714 -89.64286 L 177.85715000000002 -89.64286 L 177.85715000000002 89.64285 L -177.85714 89.64285 z" stroke-linecap="round" />
</g>
<g transform="matrix(0.42 0 0 0.11 168.56 188.55)" id="3PNlZV_YOE6DZ7XuFBG3d" class="color2 gray">
<path style="fill: #fff; stroke: rgb(0,0,0); stroke-width: 1; stroke-dasharray: none; stroke-linecap: butt; stroke-dashoffset: 0; stroke-linejoin: miter; stroke-miterlimit: 4; fill-rule: nonzero; opacity: 1;" vector-effect="non-scaling-stroke"  transform=" translate(0, 0)" d="M -177.85714 -89.64286 L 177.85715000000002 -89.64286 L 177.85715000000002 89.64285 L -177.85714 89.64285 z" stroke-linecap="round" />
</g>
<g transform="matrix(0.36 0 0 0.12 335.66 210.11)" id="_LqlyJdaDJcySscdkt1ef" class="color2 gray">
<path style="fill: #fff; stroke: rgb(0,0,0); stroke-width: 1; stroke-dasharray: none; stroke-linecap: butt; stroke-dashoffset: 0; stroke-linejoin: miter; stroke-miterlimit: 4; fill-rule: nonzero; opacity: 1;" vector-effect="non-scaling-stroke"  transform=" translate(0, 0)" d="M -177.85714 -89.64286 L 177.85715000000002 -89.64286 L 177.85715000000002 89.64285 L -177.85714 89.64285 z" stroke-linecap="round" />
</g>
<g transform="matrix(0.21 0 0 0.13 55.77 233.81)" id="oKjQpre0RiY0mrNVz2bQ5" class="color2 gray">
<path style="fill: #fff; stroke: rgb(0,0,0); stroke-width: 1; stroke-dasharray: none; stroke-linecap: butt; stroke-dashoffset: 0; stroke-linejoin: miter; stroke-miterlimit: 4; fill-rule: nonzero; opacity: 1;" vector-effect="non-scaling-stroke"  transform=" translate(0, 0)" d="M -177.85714 -89.64286 L 177.85715000000002 -89.64286 L 177.85715000000002 89.64285 L -177.85714 89.64285 z" stroke-linecap="round" />
</g>
<g transform="matrix(0.41 0 0 0.13 224.15 257.72)" id="qpjuC6U_cN1i_kXumtddK" class="color2 gray">
<path style="fill: #fff; stroke: rgb(0,0,0); stroke-width: 1; stroke-dasharray: none; stroke-linecap: butt; stroke-dashoffset: 0; stroke-linejoin: miter; stroke-miterlimit: 4; fill-rule: nonzero; opacity: 1;" vector-effect="non-scaling-stroke"  transform=" translate(0, 0)" d="M -177.85714 -89.64286 L 177.85715000000002 -89.64286 L 177.85715000000002 89.64285 L -177.85714 89.64285 z" stroke-linecap="round" />
</g>
<g transform="matrix(0.37 0 0 0.11 84.33 300.64)" id="HEntx4ZWOB4-ymvkWCmTk" class="color2 gray">
<path style="fill: #fff; stroke: rgb(0,0,0); stroke-width: 1; stroke-dasharray: none; stroke-linecap: butt; stroke-dashoffset: 0; stroke-linejoin: miter; stroke-miterlimit: 4; fill-rule: nonzero; opacity: 1;" vector-effect="non-scaling-stroke"  transform=" translate(0, 0)" d="M -177.85714 -89.64286 L 177.85715000000002 -89.64286 L 177.85715000000002 89.64285 L -177.85714 89.64285 z" stroke-linecap="round" />
</g>
<g transform="matrix(0.31 0 0 0.11 420.87 279.92)" id="TJqeg2-PYcBJf2swJqkQm" class="color2 gray">
<path style="fill: #fff; stroke: rgb(0,0,0); stroke-width: 1; stroke-dasharray: none; stroke-linecap: butt; stroke-dashoffset: 0; stroke-linejoin: miter; stroke-miterlimit: 4; fill-rule: nonzero; opacity: 1;" vector-effect="non-scaling-stroke"  transform=" translate(0, 0)" d="M -177.85714 -89.64286 L 177.85715000000002 -89.64286 L 177.85715000000002 89.64285 L -177.85714 89.64285 z" stroke-linecap="round" />
</g>
<g transform="matrix(0.32 0 0 0.13 176.17 346.55)" id="l5nuVOBN-HykiB2xxnwgP" class="color2 gray">
<path style="fill: #fff; stroke: rgb(0,0,0); stroke-width: 1; stroke-dasharray: none; stroke-linecap: butt; stroke-dashoffset: 0; stroke-linejoin: miter; stroke-miterlimit: 4; fill-rule: nonzero; opacity: 1;" vector-effect="non-scaling-stroke"  transform=" translate(0, 0)" d="M -177.85714 -89.64286 L 177.85715000000002 -89.64286 L 177.85715000000002 89.64285 L -177.85714 89.64285 z" stroke-linecap="round" />
</g>
<g transform="matrix(0.28 0 0 0.13 345.52 322.9)" id="FFuRdvTHL7Lh-MK7GlTqe" class="color2 gray">
<path style="fill: #fff; stroke: rgb(0,0,0); stroke-width: 1; stroke-dasharray: none; stroke-linecap: butt; stroke-dashoffset: 0; stroke-linejoin: miter; stroke-miterlimit: 4; fill-rule: nonzero; opacity: 1;" vector-effect="non-scaling-stroke"  transform=" translate(0, 0)" d="M -177.85714 -89.64286 L 177.85715000000002 -89.64286 L 177.85715000000002 89.64285 L -177.85714 89.64285 z" stroke-linecap="round" />
</g>
<g transform="matrix(0.29 0 0 0.13 70.13 166.63)" id="Q3M_TSmQz2OGCNanUM_LY" class="color3 dark">
<path style="fill: #fff; stroke: rgb(0,0,0); stroke-width: 1; stroke-dasharray: none; stroke-linecap: butt; stroke-dashoffset: 0; stroke-linejoin: miter; stroke-miterlimit: 4; fill-rule: nonzero; opacity: 1;" vector-effect="non-scaling-stroke"  transform=" translate(0, 0)" d="M -177.85714 -89.64286 L 177.85715000000002 -89.64286 L 177.85715000000002 89.64285 L -177.85714 89.64285 z" stroke-linecap="round" />
</g>
<g transform="matrix(0.37 0 0 0.13 284.34 166.63)" id="41Yqt6NGCdZay7e2U6qUu" class="color3 dark">
<path style="fill: #fff; stroke: rgb(0,0,0); stroke-width: 1; stroke-dasharray: none; stroke-linecap: butt; stroke-dashoffset: 0; stroke-linejoin: miter; stroke-miterlimit: 4; fill-rule: nonzero; opacity: 1;" vector-effect="non-scaling-stroke"  transform=" translate(0, 0)" d="M -177.85714 -89.64286 L 177.85715000000002 -89.64286 L 177.85715000000002 89.64285 L -177.85714 89.64285 z" stroke-linecap="round" />
</g>
<g transform="matrix(0.37 0 0 0.12 84.74 210.11)" id="J6xuYS2IMxnB6YFDpx6vn" class="color3 dark">
<path style="fill: #fff; stroke: rgb(0,0,0); stroke-width: 1; stroke-dasharray: none; stroke-linecap: butt; stroke-dashoffset: 0; stroke-linejoin: miter; stroke-miterlimit: 4; fill-rule: nonzero; opacity: 1;" vector-effect="non-scaling-stroke"  transform=" translate(0, 0)" d="M -177.85714 -89.64286 L 177.85715000000002 -89.64286 L 177.85715000000002 89.64285 L -177.85714 89.64285 z" stroke-linecap="round" />
</g>
<g transform="matrix(0.42 0 0 0.13 266.74 233.81)" id="aC3oXdGg31K0J6aBeDPLo" class="color3 dark">
<path style="fill: #fff; stroke: rgb(0,0,0); stroke-width: 1; stroke-dasharray: none; stroke-linecap: butt; stroke-dashoffset: 0; stroke-linejoin: miter; stroke-miterlimit: 4; fill-rule: nonzero; opacity: 1;" vector-effect="non-scaling-stroke"  transform=" translate(0, 0)" d="M -177.85714 -89.64286 L 177.85715000000002 -89.64286 L 177.85715000000002 89.64285 L -177.85714 89.64285 z" stroke-linecap="round" />
</g>
<g transform="matrix(0.27 0 0 0.11 426.7 188.34)" id="OLmdftgm1RuBEl9yvUmKf" class="color3 dark">
<path style="fill: #fff; stroke: rgb(0,0,0); stroke-width: 1; stroke-dasharray: none; stroke-linecap: butt; stroke-dashoffset: 0; stroke-linejoin: miter; stroke-miterlimit: 4; fill-rule: nonzero; opacity: 1;" vector-effect="non-scaling-stroke"  transform=" translate(0, 0)" d="M -177.85714 -89.64286 L 177.85715000000002 -89.64286 L 177.85715000000002 89.64285 L -177.85714 89.64285 z" stroke-linecap="round" />
</g>
<g transform="matrix(0.28 0 0 0.11 68.31 279.92)" id="niWedsUthnqqDucmzVM_C" class="color3 dark">
<path style="fill: #fff; stroke: rgb(0,0,0); stroke-width: 1; stroke-dasharray: none; stroke-linecap: butt; stroke-dashoffset: 0; stroke-linejoin: miter; stroke-miterlimit: 4; fill-rule: nonzero; opacity: 1;" vector-effect="non-scaling-stroke"  transform=" translate(0, 0)" d="M -177.85714 -89.64286 L 177.85715000000002 -89.64286 L 177.85715000000002 89.64285 L -177.85714 89.64285 z" stroke-linecap="round" />
</g>
<g transform="matrix(0.41 0 0 0.11 291.93 279.92)" id="jqBR8-3YKp10s8oTeV3SY" class="color3 dark">
<path style="fill: #fff; stroke: rgb(0,0,0); stroke-width: 1; stroke-dasharray: none; stroke-linecap: butt; stroke-dashoffset: 0; stroke-linejoin: miter; stroke-miterlimit: 4; fill-rule: nonzero; opacity: 1;" vector-effect="non-scaling-stroke"  transform=" translate(0, 0)" d="M -177.85714 -89.64286 L 177.85715000000002 -89.64286 L 177.85715000000002 89.64285 L -177.85714 89.64285 z" stroke-linecap="round" />
</g>
<g transform="matrix(0.21 0 0 0.13 438.13 257.66)" id="7TI_gHRrR8vhYdYdNE2XZ" class="color3 dark">
<path style="fill: #fff; stroke: rgb(0,0,0); stroke-width: 1; stroke-dasharray: none; stroke-linecap: butt; stroke-dashoffset: 0; stroke-linejoin: miter; stroke-miterlimit: 4; fill-rule: nonzero; opacity: 1;" vector-effect="non-scaling-stroke"  transform=" translate(0, 0)" d="M -177.85714 -89.64286 L 177.85715000000002 -89.64286 L 177.85715000000002 89.64285 L -177.85714 89.64285 z" stroke-linecap="round" />
</g>
<g transform="matrix(0.39 0 0 0.11 405.73 300.64)" id="fIBJ8UsaodibgjicTEAd6" class="color3 dark">
<path style="fill: #fff; stroke: rgb(0,0,0); stroke-width: 1; stroke-dasharray: none; stroke-linecap: butt; stroke-dashoffset: 0; stroke-linejoin: miter; stroke-miterlimit: 4; fill-rule: nonzero; opacity: 1;" vector-effect="non-scaling-stroke"  transform=" translate(0, 0)" d="M -177.85714 -89.64286 L 177.85715000000002 -89.64286 L 177.85715000000002 89.64285 L -177.85714 89.64285 z" stroke-linecap="round" />
</g>
<g transform="matrix(0.35 0 0 0.13 233.88 322.9)" id="3l0knySoxofPVhEVknVkv" class="color3 dark">
<path style="fill: #fff; stroke: rgb(0,0,0); stroke-width: 1; stroke-dasharray: none; stroke-linecap: butt; stroke-dashoffset: 0; stroke-linejoin: miter; stroke-miterlimit: 4; fill-rule: nonzero; opacity: 1;" vector-effect="non-scaling-stroke"  transform=" translate(0, 0)" d="M -177.85714 -89.64286 L 177.85715000000002 -89.64286 L 177.85715000000002 89.64285 L -177.85714 89.64285 z" stroke-linecap="round" />
</g>
<g transform="matrix(0.24 0 0 0.13 432.37 346.55)" id="0yvX9FDWgSFnMe08W4YAp" class="color3 dark">
<path style="fill: #fff; stroke: rgb(0,0,0); stroke-width: 1; stroke-dasharray: none; stroke-linecap: butt; stroke-dashoffset: 0; stroke-linejoin: miter; stroke-miterlimit: 4; fill-rule: nonzero; opacity: 1;" vector-effect="non-scaling-stroke"  transform=" translate(0, 0)" d="M -177.85714 -89.64286 L 177.85715000000002 -89.64286 L 177.85715000000002 89.64285 L -177.85714 89.64285 z" stroke-linecap="round" />
</g>
<g transform="matrix(0.28 0 0 0.13 68.31 346.55)" id="Pd8eLAxN7wh3OHn9NU64M" class="color3 dark">
<path style="fill: #fff; stroke: rgb(0,0,0); stroke-width: 1; stroke-dasharray: none; stroke-linecap: butt; stroke-dashoffset: 0; stroke-linejoin: miter; stroke-miterlimit: 4; fill-rule: nonzero; opacity: 1;" vector-effect="non-scaling-stroke"  transform=" translate(0, 0)" d="M -177.85714 -89.64286 L 177.85715000000002 -89.64286 L 177.85715000000002 89.64285 L -177.85714 89.64285 z" stroke-linecap="round" />
</g>
<g transform="matrix(0.27 0 0 0.13 169.99 166.63)" id="WqtCXjCnZni81Gn56Aqth" class="color1 medium">
<path style="fill: #fff; stroke: rgb(0,0,0); stroke-width: 1; stroke-dasharray: none; stroke-linecap: butt; stroke-dashoffset: 0; stroke-linejoin: miter; stroke-miterlimit: 4; fill-rule: nonzero; opacity: 1;" vector-effect="non-scaling-stroke"  transform=" translate(0, 0)" d="M -177.85714 -89.64286 L 177.85715000000002 -89.64286 L 177.85715000000002 89.64285 L -177.85714 89.64285 z" stroke-linecap="round" />
</g>
<g transform="matrix(0.37 0 0 0.11 310.91 188.12)" id="dvatDcnaMPISQ0TZktLDI" class="color1 medium">
<path style="fill: #fff; stroke: rgb(0,0,0); stroke-width: 1; stroke-dasharray: none; stroke-linecap: butt; stroke-dashoffset: 0; stroke-linejoin: miter; stroke-miterlimit: 4; fill-rule: nonzero; opacity: 1;" vector-effect="non-scaling-stroke"  transform=" translate(0, 0)" d="M -177.85714 -89.64286 L 177.85715000000002 -89.64286 L 177.85715000000002 89.64285 L -177.85714 89.64285 z" stroke-linecap="round" />
</g>
<g transform="matrix(0.34 0 0 0.12 210.24 210.11)" id="ONXK7TmU98Vdb9mHElNWm" class="color1 medium">
<path style="fill: #fff; stroke: rgb(0,0,0); stroke-width: 1; stroke-dasharray: none; stroke-linecap: butt; stroke-dashoffset: 0; stroke-linejoin: miter; stroke-miterlimit: 4; fill-rule: nonzero; opacity: 1;" vector-effect="non-scaling-stroke"  transform=" translate(0, 0)" d="M -177.85714 -89.64286 L 177.85715000000002 -89.64286 L 177.85715000000002 89.64285 L -177.85714 89.64285 z" stroke-linecap="round" />
</g>
<g transform="matrix(0.21 0 0 0.11 55.99 188.12)" id="RsFgbtzDG_BpZlgZ6Zy3D" class="color1 medium">
<path style="fill: #fff; stroke: rgb(0,0,0); stroke-width: 1; stroke-dasharray: none; stroke-linecap: butt; stroke-dashoffset: 0; stroke-linejoin: miter; stroke-miterlimit: 4; fill-rule: nonzero; opacity: 1;" vector-effect="non-scaling-stroke"  transform=" translate(0, 0)" d="M -177.85714 -89.64286 L 177.85715000000002 -89.64286 L 177.85715000000002 89.64285 L -177.85714 89.64285 z" stroke-linecap="round" />
</g>
<g transform="matrix(0.21 0 0 0.12 438.13 210.33)" id="xkuCeDplRPupdBKM4ejFv" class="color1 medium">
<path style="fill: #fff; stroke: rgb(0,0,0); stroke-width: 1; stroke-dasharray: none; stroke-linecap: butt; stroke-dashoffset: 0; stroke-linejoin: miter; stroke-miterlimit: 4; fill-rule: nonzero; opacity: 1;" vector-effect="non-scaling-stroke"  transform=" translate(0, 0)" d="M -177.85714 -89.64286 L 177.85715000000002 -89.64286 L 177.85715000000002 89.64285 L -177.85714 89.64285 z" stroke-linecap="round" />
</g>
<g transform="matrix(0.27 0 0 0.13 142.27 233.75)" id="Tw0NQniIB-JCGAfATHd4Y" class="color1 medium">
<path style="fill: #fff; stroke: rgb(0,0,0); stroke-width: 1; stroke-dasharray: none; stroke-linecap: butt; stroke-dashoffset: 0; stroke-linejoin: miter; stroke-miterlimit: 4; fill-rule: nonzero; opacity: 1;" vector-effect="non-scaling-stroke"  transform=" translate(0, 0)" d="M -177.85714 -89.64286 L 177.85715000000002 -89.64286 L 177.85715000000002 89.64285 L -177.85714 89.64285 z" stroke-linecap="round" />
</g>
<g transform="matrix(0.37 0 0 0.13 409.04 233.75)" id="-l7vL_Zji8hZ_NIduckEm" class="color1 medium">
<path style="fill: #fff; stroke: rgb(0,0,0); stroke-width: 1; stroke-dasharray: none; stroke-linecap: butt; stroke-dashoffset: 0; stroke-linejoin: miter; stroke-miterlimit: 4; fill-rule: nonzero; opacity: 1;" vector-effect="non-scaling-stroke"  transform=" translate(0, 0)" d="M -177.85714 -89.64286 L 177.85715000000002 -89.64286 L 177.85715000000002 89.64285 L -177.85714 89.64285 z" stroke-linecap="round" />
</g>
<g transform="matrix(0.37 0 0 0.13 84.97 257.66)" id="cYDEPjy68I9VMBqgIXCVK" class="color1 medium">
<path style="fill: #fff; stroke: rgb(0,0,0); stroke-width: 1; stroke-dasharray: none; stroke-linecap: butt; stroke-dashoffset: 0; stroke-linejoin: miter; stroke-miterlimit: 4; fill-rule: nonzero; opacity: 1;" vector-effect="non-scaling-stroke"  transform=" translate(0, 0)" d="M -177.85714 -89.64286 L 177.85715000000002 -89.64286 L 177.85715000000002 89.64285 L -177.85714 89.64285 z" stroke-linecap="round" />
</g>
<g transform="matrix(0.29 0 0 0.13 348.74 257.66)" id="EX_BpjZIgPqjIc8-8n8Tx" class="color1 medium">
<path style="fill: #fff; stroke: rgb(0,0,0); stroke-width: 1; stroke-dasharray: none; stroke-linecap: butt; stroke-dashoffset: 0; stroke-linejoin: miter; stroke-miterlimit: 4; fill-rule: nonzero; opacity: 1;" vector-effect="non-scaling-stroke"  transform=" translate(0, 0)" d="M -177.85714 -89.64286 L 177.85715000000002 -89.64286 L 177.85715000000002 89.64285 L -177.85714 89.64285 z" stroke-linecap="round" />
</g>
<g transform="matrix(0.28 0 0 0.11 168.16 279.92)" id="1oKDzV-4hSc1NwNy4vs1i" class="color1 medium">
<path style="fill: #fff; stroke: rgb(0,0,0); stroke-width: 1; stroke-dasharray: none; stroke-linecap: butt; stroke-dashoffset: 0; stroke-linejoin: miter; stroke-miterlimit: 4; fill-rule: nonzero; opacity: 1;" vector-effect="non-scaling-stroke"  transform=" translate(0, 0)" d="M -177.85714 -89.64286 L 177.85715000000002 -89.64286 L 177.85715000000002 89.64285 L -177.85714 89.64285 z" stroke-linecap="round" />
</g>
<g transform="matrix(0.52 0 0 0.11 242.64 300.64)" id="GcJtGJdGPVrDe-3nZmU-B" class="color1 medium">
<path style="fill: #fff; stroke: rgb(0,0,0); stroke-width: 1; stroke-dasharray: none; stroke-linecap: butt; stroke-dashoffset: 0; stroke-linejoin: miter; stroke-miterlimit: 4; fill-rule: nonzero; opacity: 1;" vector-effect="non-scaling-stroke"  transform=" translate(0, 0)" d="M -177.85714 -89.64286 L 177.85715000000002 -89.64286 L 177.85715000000002 89.64285 L -177.85714 89.64285 z" stroke-linecap="round" />
</g>
<g transform="matrix(0.43 0 0 0.13 94.8 322.9)" id="lbfol1Pu2JMIixFGDi4jV" class="color1 medium">
<path style="fill: #fff; stroke: rgb(0,0,0); stroke-width: 1; stroke-dasharray: none; stroke-linecap: butt; stroke-dashoffset: 0; stroke-linejoin: miter; stroke-miterlimit: 4; fill-rule: nonzero; opacity: 1;" vector-effect="non-scaling-stroke"  transform=" translate(0, 0)" d="M -177.85714 -89.64286 L 177.85715000000002 -89.64286 L 177.85715000000002 89.64285 L -177.85714 89.64285 z" stroke-linecap="round" />
</g>
<g transform="matrix(0.22 0 0 0.13 435.27 322.9)" id="yX8goLnLu-u5KZDj35y3Z" class="color1 medium">
<path style="fill: #fff; stroke: rgb(0,0,0); stroke-width: 1; stroke-dasharray: none; stroke-linecap: butt; stroke-dashoffset: 0; stroke-linejoin: miter; stroke-miterlimit: 4; fill-rule: nonzero; opacity: 1;" vector-effect="non-scaling-stroke"  transform=" translate(0, 0)" d="M -177.85714 -89.64286 L 177.85715000000002 -89.64286 L 177.85715000000002 89.64285 L -177.85714 89.64285 z" stroke-linecap="round" />
</g>
<g transform="matrix(0.43 0 0 0.13 311.56 346.55)" id="N7EypjJgs4caFGCtfpKT9" class="color1 medium">
<path style="fill: #fff; stroke: rgb(0,0,0); stroke-width: 1; stroke-dasharray: none; stroke-linecap: butt; stroke-dashoffset: 0; stroke-linejoin: miter; stroke-miterlimit: 4; fill-rule: nonzero; opacity: 1;" vector-effect="non-scaling-stroke"  transform=" translate(0, 0)" d="M -177.85714 -89.64286 L 177.85715000000002 -89.64286 L 177.85715000000002 89.64285 L -177.85714 89.64285 z" stroke-linecap="round" />
</g>
</svg>